PathFileType	4	(X/Y/Z)	/Users/itak/Documents/Research/Walk-IL/dataset/trc/00282_00010.trc
DataRate	CameraRate	NumFrames	NumMarkers	Units	OrigDataRate	OrigDataStartFrame	OrigNumFrames
100.000000	100.000000	4	53	mm	100.000000	236	630
Frame#	Time	RPSI			LPSI			L3			STRN			T10			C7			CLAV			RBAK			LBAK			LSHO			LUPA			LAEL			LAOL			LWTS			LWPS			LFRA			LIFD			LHPS			LHTS			RSHO			RUPA			RAEL			RAOL			RWTS			RWPS			RFRA			RIFD			RHTS			RHPS			RBHD			LFHD			RFHD			LBHD			LHIP			RASI			LASI			LKNE			LTHI			LANK			LTIP			LTOE			LMT1			LMT5			LHEE			RKNE			RANK			RTIP			RTOE			RMT1			RMT5			RHEE			RHIP			RTHI			
		X1	Y1	Z1	X2	Y2	Z2	X3	Y3	Z3	X4	Y4	Z4	X5	Y5	Z5	X6	Y6	Z6	X7	Y7	Z7	X8	Y8	Z8	X9	Y9	Z9	X10	Y10	Z10	X11	Y11	Z11	X12	Y12	Z12	X13	Y13	Z13	X14	Y14	Z14	X15	Y15	Z15	X16	Y16	Z16	X17	Y17	Z17	X18	Y18	Z18	X19	Y19	Z19	X20	Y20	Z20	X21	Y21	Z21	X22	Y22	Z22	X23	Y23	Z23	X24	Y24	Z24	X25	Y25	Z25	X26	Y26	Z26	X27	Y27	Z27	X28	Y28	Z28	X29	Y29	Z29	X30	Y30	Z30	X31	Y31	Z31	X32	Y32	Z32	X33	Y33	Z33	X34	Y34	Z34	X35	Y35	Z35	X36	Y36	Z36	X37	Y37	Z37	X38	Y38	Z38	X39	Y39	Z39	X40	Y40	Z40	X41	Y41	Z41	X42	Y42	Z42	X43	Y43	Z43	X44	Y44	Z44	X45	Y45	Z45	X46	Y46	Z46	X47	Y47	Z47	X48	Y48	Z48	X49	Y49	Z49	X50	Y50	Z50	X51	Y51	Z51	X52	Y52	Z52	X53	Y53	Z53	

237	2.36	1057.5732421875	964.9901733398438	-339.3237915039062	924.2074584960938	941.1007690429688	-227.4123840332031	970.456298828125	1023.915283203125	-274.6680908203125	820.7737426757812	1205.19140625	-471.8556213378906	972.639892578125	1138.806640625	-251.2792358398438	934.954345703125	1383.96435546875	-279.0306396484375	854.3424072265625	1303.6162109375	-414.9333801269531	1027.188842773438	1246.77587890625	-277.2553100585938	856.7954711914062	1350.211547851562	-204.7720794677734	764.9854736328125	1354.665283203125	-255.6049499511719	712.62353515625	1239.828369140625	-195.2921600341797	681.1983642578125	1042.59375	-208.3160247802734	761.1775512695312	1015.056762695312	-183.5740966796875	633.0111083984375	871.0615234375	-356.7441711425781	596.3226928710938	844.8121948242188	-297.7310180664062	646.5532836914062	952.1723022460938	-238.0934600830078	572.2132568359375	710.3599853515625	-430.4473876953125	573.016845703125	769.9401245117188	-336.7470703125	574.247314453125	797.4840698242188	-396.3457641601562	1029.841552734375	1361.352905273438	-422.9558715820312	1091.55224609375	1306.028686523438	-450.4938659667969	1168.226806640625	1048.903442382812	-442.5975646972656	1102.882202148438	1040.16552734375	-372.2715454101562	1132.267578125	808.2249145507812	-469.7731628417969	1215.383911132812	823.6316528320312	-465.9666442871094	1182.40087890625	983.4398193359375	-461.0328063964844	1160.25439453125	621.6421508789062	-470.5619506835938	1164.955688476562	696.2430419921875	-482.4819641113281	1228.28125	712.1380004882812	-465.3749694824219	964.197998046875	1549.518188476562	-369.3921203613281	751.56396484375	1566.6884765625	-363.6520690917969	804.5923461914062	1574.9228515625	-439.5097961425781	883.2434692382812	1527.751831054688	-249.07666015625	810.892333984375	883.427490234375	-218.0605316162109	935.115234375	936.4681396484375	-525.565185546875	754.4230346679688	898.0673828125	-351.9321899414062	860.730224609375	422.7423400878906	-276.6811218261719	825.1202392578125	562.043212890625	-267.6879577636719	1098.26953125	133.4588317871094	-23.67521286010742	974.0585327148438	264.1114196777344	-146.8751678466797	1148.4775390625	22.1665096282959	-179.5950469970703	1190.231201171875	53.32180023193359	-135.3995513916016	1083.239013671875	43.3928337097168	-103.1360321044922	1154.944213867188	178.4955444335938	-11.01246643066406	931.8851928710938	490.7283935546875	-612.6008911132812	973.2091064453125	29.26598167419434	-626.6683959960938	908.9783935546875	365.1472778320312	-631.501708984375	773.2214965820312	48.45024108886719	-641.5592041015625	812.6917724609375	46.10791015625	-585.079345703125	881.3340454101562	22.0684700012207	-678.7337646484375	1003.654357910156	30.41402816772461	-560.796630859375	1068.176147460938	937.4691162109375	-489.7244567871094	995.707763671875	745.5178833007812	-580.8674926757812	
238	2.37	1052.349487304688	967.6845092773438	-349.4799194335938	921.4263916015625	942.5049438476562	-235.3088836669922	966.300048828125	1026.494384765625	-283.7471008300781	812.6214599609375	1207.647705078125	-478.2723083496094	968.573974609375	1140.92919921875	-260.698486328125	930.369384765625	1385.868530273438	-287.3908081054688	847.40283203125	1306.221801757812	-421.8632202148438	1022.703552246094	1248.70556640625	-287.4169311523438	853.6214599609375	1352.350341796875	-211.7716827392578	760.8527221679688	1357.374145507812	-260.8109436035156	709.3162841796875	1242.473999023438	-199.9580688476562	678.020263671875	1044.413818359375	-212.1642761230469	758.7360229492188	1018.165954589844	-187.9470520019531	631.8432006835938	868.3801879882812	-357.3058471679688	595.7224731445312	843.4622192382812	-297.5924072265625	644.6654663085938	952.8359985351562	-240.5092163085938	574.3062744140625	703.7887573242188	-425.3436584472656	573.7263793945312	766.7833862304688	-334.0097045898438	574.704345703125	792.1908569335938	-394.6029968261719	1022.733093261719	1363.58935546875	-432.8672180175781	1083.95849609375	1308.425659179688	-461.6078796386719	1160.238891601562	1051.023193359375	-456.3509826660156	1096.263061523438	1042.13232421875	-384.4888000488281	1122.205444335938	809.7713623046875	-485.6923522949219	1205.467407226562	825.3992919921875	-482.6306457519531	1173.743041992188	985.4078369140625	-475.5152893066406	1149.114868164062	623.0772705078125	-488.7825317382812	1153.6904296875	697.7835693359375	-500.4406127929688	1217.051879882812	714.130859375	-483.8538818359375	958.666748046875	1551.208374023438	-378.4026184082031	746.1087036132812	1569.212646484375	-369.9085083007812	798.2127685546875	1576.868774414062	-446.46337890625	879.19091796875	1530.227294921875	-256.9030456542969	808.600341796875	884.7637939453125	-223.9808959960938	926.7576904296875	938.1819458007812	-533.5706176757812	749.3698120117188	900.068115234375	-356.7041320800781	847.3679809570312	422.6595153808594	-288.2850036621094	815.8900146484375	562.4733276367188	-277.2506713867188	1093.240478515625	143.8025360107422	-35.80893707275391	965.2180786132812	268.9423522949219	-158.4529418945312	1146.508911132812	21.19160270690918	-182.1919708251953	1186.559204101562	58.94331359863281	-142.603271484375	1080.811645507812	46.28622436523438	-107.3047027587891	1148.937622070312	191.1350860595703	-28.26333045959473	928.5919189453125	489.9867248535156	-616.4640502929688	972.9649658203125	29.46927070617676	-626.4765625	906.60400390625	364.2481689453125	-634.2918090820312	772.2950439453125	46.66790008544922	-640.9698486328125	812.1556396484375	44.85166168212891	-584.7635498046875	881.0896606445312	22.28624534606934	-678.4348754882812	1003.52294921875	30.54068756103516	-560.6590576171875	1060.31689453125	939.837890625	-500.0624694824219	989.7396850585938	745.8128051757812	-588.4229736328125	
239	2.38	1047.111206054688	970.2194213867188	-359.4209899902344	918.7744750976562	943.6964111328125	-242.9104919433594	962.1069946289062	1028.85400390625	-292.8466491699219	804.292236328125	1209.805297851562	-484.2824401855469	964.6166381835938	1143.031860351562	-270.0282897949219	925.6942749023438	1387.775512695312	-295.6689147949219	840.2421875	1308.597534179688	-428.5488586425781	1018.194641113281	1250.641967773438	-297.6228637695312	850.48095703125	1354.350708007812	-218.6674499511719	756.6812133789062	1359.875732421875	-265.7153015136719	706.2078247070312	1244.810546875	-204.2389068603516	675.0154418945312	1045.98876953125	-215.5225372314453	756.444091796875	1020.991088867188	-191.9163818359375	630.9846801757812	865.6990966796875	-357.4660339355469	595.2228393554688	842.1220092773438	-297.2063903808594	642.8709716796875	953.3431396484375	-242.5501098632812	577.2677612304688	697.4401245117188	-419.978271484375	574.7284545898438	763.68359375	-331.0697631835938	575.7749633789062	786.9758911132812	-392.5899658203125	1015.330871582031	1365.813842773438	-442.7998352050781	1076.075927734375	1310.864501953125	-472.8226013183594	1152.036987304688	1053.205322265625	-470.1372375488281	1089.4853515625	1044.129516601562	-396.8351135253906	1111.752075195312	811.4467163085938	-501.75146484375	1195.176879882812	827.1494750976562	-499.3506164550781	1164.860595703125	987.4137573242188	-490.0330200195312	1137.57666015625	624.5266723632812	-507.1010131835938	1142.026489257812	699.338134765625	-518.4965209960938	1205.428588867188	716.1174926757812	-502.4019165039062	953.0188598632812	1552.805908203125	-387.282470703125	740.579833984375	1571.703735351562	-375.9961242675781	791.7423706054688	1578.770263671875	-453.2427062988281	875.0381469726562	1532.571655273438	-264.6058349609375	806.4983520507812	885.820068359375	-229.6414489746094	918.4631958007812	939.5994262695312	-541.2777709960938	744.8590087890625	901.7747192382812	-361.0763244628906	833.710205078125	422.9262390136719	-299.8223876953125	806.6112060546875	563.0274658203125	-286.581787109375	1087.007690429688	154.0532684326172	-49.10202407836914	955.6494750976562	273.8136291503906	-170.7666778564453	1143.767211914062	20.18985939025879	-185.7776641845703	1181.660766601562	64.87348175048828	-151.1245422363281	1077.568725585938	49.83379364013672	-112.3948974609375	1141.675537109375	203.1570587158203	-46.60780334472656	925.1956787109375	489.3118286132812	-620.0841674804688	972.6727294921875	29.70083808898926	-626.2365112304688	904.164794921875	363.4054565429688	-636.7867431640625	771.3573608398438	44.83945083618164	-640.329345703125	811.5647583007812	43.56596755981445	-584.4022827148438	880.7967529296875	22.53608703613281	-678.0960083007812	1003.322204589844	30.68260383605957	-560.4530029296875	1052.489501953125	941.90625	-510.0666809082031	983.8720703125	745.9938354492188	-595.4376220703125	
240	2.39	1041.851806640625	972.533447265625	-369.0995483398438	916.17578125	944.6580810546875	-250.2366333007812	957.875	1030.94287109375	-301.8913879394531	795.8373413085938	1211.62939453125	-489.8830871582031	960.7620849609375	1145.105834960938	-279.2320861816406	920.937255859375	1389.68603515625	-303.8876342773438	832.8931274414062	1310.69189453125	-434.9919128417969	1013.664123535156	1252.606079101562	-307.8470153808594	847.35009765625	1356.221923828125	-225.4883270263672	752.473388671875	1362.129150390625	-270.38525390625	703.3033447265625	1246.822509765625	-208.1846466064453	672.2354736328125	1047.314453125	-218.4035339355469	754.3569946289062	1023.512939453125	-195.5234069824219	630.4229736328125	863.0188598632812	-357.2280578613281	594.8439331054688	840.7599487304688	-296.554443359375	641.21728515625	953.68505859375	-244.2076263427734	580.9576416015625	691.4053955078125	-414.4276123046875	575.9988403320312	760.6551513671875	-327.936767578125	577.370849609375	781.892333984375	-390.3045959472656	1007.649230957031	1367.999267578125	-452.7503967285156	1067.90478515625	1313.29248046875	-484.1187133789062	1143.611694335938	1055.397583007812	-483.9965209960938	1082.526977539062	1046.098510742188	-409.359375	1100.909057617188	813.2850952148438	-517.9563598632812	1184.521728515625	828.8544921875	-516.1177978515625	1155.739013671875	989.41064453125	-504.6070556640625	1125.657348632812	625.9954833984375	-525.5043334960938	1129.981689453125	700.912353515625	-536.6372680664062	1193.44482421875	718.0645141601562	-520.9921264648438	947.2283325195312	1554.319702148438	-396.0227966308594	734.9522705078125	1574.108520507812	-381.8876037597656	785.1470947265625	1580.612670898438	-459.8235473632812	870.7869873046875	1534.743408203125	-272.1812133789062	804.453125	886.6218872070312	-235.0885467529297	910.2609252929688	940.7489013671875	-548.6802978515625	740.4541625976562	903.2433471679688	-365.1797485351562	819.8015747070312	423.5834655761719	-311.4075622558594	797.2518920898438	563.7279052734375	-295.7543334960938	1079.679321289062	163.9455108642578	-63.41639709472656	945.3421630859375	278.6911315917969	-183.7964172363281	1139.919799804688	19.30925559997559	-190.7335662841797	1175.371948242188	70.98528289794922	-161.2743682861328	1073.400146484375	53.97467803955078	-118.6081314086914	1133.305541992188	214.3318023681641	-65.7767333984375	921.6197509765625	488.70263671875	-623.557373046875	972.3524780273438	29.97318649291992	-625.96875	901.5859375	362.6051635742188	-639.0382690429688	770.4583129882812	43.06100845336914	-639.6871948242188	810.94482421875	42.33338165283203	-584.0390014648438	880.477783203125	22.80324363708496	-677.7508544921875	1003.057983398438	30.84638595581055	-560.1898193359375	1044.712646484375	943.6525268554688	-519.718505859375	977.9578857421875	746.1187744140625	-602.0288696289062	
